<svg xmlns="http://www.w3.org/2000/svg" viewBox="0 0 258.1 280.4"><defs><style>.cls-1{fill:#fff;}.cls-2{fill:#1d3248;}.cls-3{fill:#00ac58;}.cls-4{fill:#f6f7f8;}.cls-5{fill:#403f41;opacity:0.4;}.cls-5,.cls-6{isolation:isolate;}.cls-6{fill:#1e1919;opacity:0.1;}</style></defs><title>agencia</title><g id="Capa_2" data-name="Capa 2"><g id="Pagina_inicial_escritorio" data-name="Pagina inicial escritorio"><path class="cls-1" d="M0,75.3a11.7,11.7,0,0,1,5.6-9.3L123.4,1.3a13,13,0,0,1,11.2,0L252.5,66.1a11.7,11.7,0,0,1,5.6,9.3V204.9a11.7,11.7,0,0,1-5.6,9.3L134.6,279a13,13,0,0,1-11.2,0L5.6,214.2A11.7,11.7,0,0,1,0,204.9Z"/><path class="cls-2" d="M61.6,47a7.7,7.7,0,0,1,8-7.6H188.8a7.7,7.7,0,0,1,8,7.6V233.4a7.7,7.7,0,0,1-8,7.6H69.5a7.7,7.7,0,0,1-8-7.6Z"/><rect class="cls-3" x="69.5" y="65.8" width="119.3" height="142.37"/><path class="cls-4" d="M134,51.8h-9.9q-.4,0-.4-.4a.5.5,0,0,1,.4-.4H134q.4,0,.4.4T134,51.8Z"/><path class="cls-4" d="M137.3,53.9H121.1a.5.5,0,0,1-.4-.4q0-.4.4-.4h16.2a.5.5,0,0,1,.4.4Q137.7,53.9,137.3,53.9Z"/><path class="cls-4" d="M134,55.8h-9.9a.4.4,0,1,1,0-.8H134q.4,0,.4.4T134,55.8Z"/><path class="cls-4" d="M129.2,234.1a8.4,8.4,0,0,1-8.5-8.3,8.3,8.3,0,0,1,8.5-8.1,8.4,8.4,0,0,1,8.5,8.1A8.5,8.5,0,0,1,129.2,234.1Zm0-15.7a7.4,7.4,0,1,0,7.8,7.4A7.7,7.7,0,0,0,129.2,218.4Z"/><rect class="cls-4" x="79.4" y="73.4" width="99.4" height="26.79"/><rect class="cls-5" x="114.3" y="109" width="64.7" height="26.79"/><rect class="cls-5" x="79.4" y="108.7" width="28.4" height="27.07"/><rect class="cls-5" x="114.3" y="142.4" width="64.7" height="26.79"/><rect class="cls-5" x="79.4" y="142.1" width="28.4" height="27.07"/><rect class="cls-5" x="114.3" y="175.6" width="64.7" height="26.79"/><rect class="cls-5" x="79.4" y="175.5" width="28.4" height="27.07"/><path class="cls-6" d="M252.5,66.1,134.5,1.3A10.9,10.9,0,0,0,129.2,0V280.4a10.9,10.9,0,0,0,5.3-1.3l117.8-64.8a11.7,11.7,0,0,0,5.6-9.3V75.3C258.1,72,255.6,67.8,252.5,66.1Z"/></g></g></svg>