<svg xmlns="http://www.w3.org/2000/svg" viewBox="0 0 89.43 89.43"><defs><style>.cls-1{fill:#009500;}.cls-2{fill:#fff;}</style></defs><title>icono</title><g id="Capa_2" data-name="Capa 2"><g id="Pagina_inicial_escritorio" data-name="Pagina inicial escritorio"><circle class="cls-1" cx="44.72" cy="44.72" r="44.72"/><g id="fa-angle-down"><path class="cls-2" d="M76,64.36a5,5,0,0,1-5,5H21a5,5,0,0,1-5-5v-38a5,5,0,0,1,5-5H71a5,5,0,0,1,5,5ZM21,25.32a1,1,0,0,0-1,1v38a1,1,0,0,0,1,1H71a1,1,0,0,0,1-1v-38a1,1,0,0,0-1-1Zm9,16a6,6,0,1,1,6-6A6,6,0,0,1,30,41.33Zm38,20H24v-6l10-10,5,5,16-16,13,13Z"/></g></g></g></svg>