<svg xmlns="http://www.w3.org/2000/svg" viewBox="0 0 347.41 316.78"><defs><style>.cls-1{fill:#c5ecfb;}.cls-2{fill:#00d34b;}.cls-3{fill:#003454;}.cls-4{fill:none;}.cls-5{fill:#b2e2de;}.cls-6{fill:#002c3d;}.cls-7{fill:#fff;}.cls-8{fill:#ff6111;}.cls-9{fill:#b0c9cb;}</style></defs><title>imagen_centro</title><g id="Capa_2" data-name="Capa 2"><g id="Pagina_inicial_escritorio" data-name="Pagina inicial escritorio"><g id="Porque_somos_tu_mejor_elección" data-name="Porque somos tu mejor elección"><path class="cls-1" d="M188.91,0C101.57,0,30.52,71.05,30.52,158.39s71.05,158.39,158.39,158.39,158.51-70.94,158.51-158.28S276.25,0,188.91,0Z"/><path class="cls-2" d="M339,201.55c-2,0-4.78,1-4.78,1.71s-2.85,1.94-3.87,2.39-2.73,3.3-3.19,4.21-2.73.68-3.53,1S321,212.71,321,213.5s-.46.68-1-.23l-1.14,1.14-1.37,1.48c-.8,2.39-3.3,5.47-4.21,5.69s-1,4.44-1,6.15a8.08,8.08,0,0,0,1.48,4.67v1.37l.23,2.73a4.78,4.78,0,0,0,1.59,4.33c.46.34,4.33-.68,5.81-1l2-.8a161.23,161.23,0,0,0,16.28-37.8A1.14,1.14,0,0,1,339,201.55Z"/><path class="cls-2" d="M77.43,205.53c-.23.46,2.62,3.3,3.64,4.33a29.62,29.62,0,0,1,3.87,7.29,13.09,13.09,0,0,1,0,4.67,8,8,0,0,0,.57,2.39c.11.57-.91,5.12-.57,7.06s-2.16,7.63-2,10.59,1.37,6.6,1.82,6.38.68,2.62-.11,3-1.94,2.62-1.37,2.73,0,2.39.11,3.3.91,6.95,1,8.43,2.28,5.12,2.73,6.38.91,3.53,1,3.87l.34.8a10.81,10.81,0,0,1,2.28,1c.46.34,3.87.11,5-.11s.11-1.25-.34-1.71-.91-3.19-1.48-3.42-.8-3.64-.34-4.44,2.51-1.94,2.73-2.62.23-3.53-.23-4,.11-4-.23-5.81,3.07-3.42,3.3-4.78,4-3,4.78-3.64,1.59-4.78,1.14-5.58,1.37-1.59,2.16-1.59a11.39,11.39,0,0,0,2-.57c.23,0,1.25-1.82,1.71-2.16s1.59-4.67,2.51-5.35a7.74,7.74,0,0,0,1.71-4,10.59,10.59,0,0,1,1.94-3.64c.46-.68,4-2.28,4.67-2.51s1.59-5.92,1.82-8a45.91,45.91,0,0,1,1.37-5.47c0-.68,1.14-1.25,1.37-1.48s1-2.85,1.59-3.42,2.51-3.07,2.51-3.64a18.1,18.1,0,0,1,.68-3.19v-3.53c-.57-1.71-2.51-3.87-3-3.3s-2.62-1.48-3.76-1.94a18.57,18.57,0,0,0-4.55-.68c-.68,0-3.07-1.94-4.21-2.28a38,38,0,0,1-4.33-1.14c-.46-.34-1.14-4.44-3.42-5.81s-6.15-4.55-6.6-5.69-4.67-3.53-6-4.33-3.3-.91-3.53-.57-1.94-2.28-2.73-3-3.42-1.25-3.53-.68-1.82.23-2.16-.23-1.71.23-2.39.46-2.73,3.42-3.76,4.21-2.16-.68-2.85-1a6.83,6.83,0,0,0-3.76,1c-.68.46-2.16-3.42-1.82-5.24s-1.59-5.35-3.19-5.47-1.94-3.87-1.71-5.24-2.73-2.28-3.53-2.39-2.62,1.82-3,2.85-7.29-1.25-6.49-5.47,4.1-8.54,4.9-9,5.24-.68,6.26-.11a1.82,1.82,0,0,0,2-.23,13.89,13.89,0,0,1,4.9.46c1,.46,2.62,4.67,3.76,5.12s1.48-2.73,1.71-3.53a10.24,10.24,0,0,0-.8-3.3c-.23-.57,1.82-5.69,3.53-6.49s3.53-3.76,3.3-4.21,1.37-.91,1.71-1.14,0-4.33.57-5.24a19.59,19.59,0,0,1,4.9-3.19c1-.46,1.71-3,1.37-3.53s2.62-3,4.21-3.53,2.85.91,2.51,1,2.39-1.25,3.3-1.82,0-2.62-.68-3.19-.23-2.73.57-3a2.86,2.86,0,0,0,1.25-2.51c-.23-.34,3.42.34,4.78-.68s.34,2.39-.57,3.87a1.59,1.59,0,0,0,1.37,2.51,1.48,1.48,0,0,1,1.48,1.14c.11.34,1.48-.46,2.39,0s1.48-1.25,1.48-2-2.16-2.28-2.51-3.3a52.38,52.38,0,0,1-.46-7.4c0-1-1.48-2.85-1.94-2.51s-1.37-2.85-2.16-3.53a4,4,0,0,1-.91-2.73c0-.46-2.51-3.19-3.19-4.44s-1.48-1-1.59-.46-1.82.68-2.62.57-1.37-3-1.37-4-3.3-1.25-3.87-2.16-2.73-.46-3.07-1a3.64,3.64,0,0,0-2.62-.91c-.34.23-.23,8.08-.57,10.13s-2.16,4-2.85,3.87-.23,1.48.11,1.37S80.28,90.41,80,92s-1.82,0-2-1.48-1.82-3.42-2.16-3S74.47,87,74,87.34s-3.42-1.71-4.67-2.39-1.82-4.33-2.62-4.67-.11-.8-.11-1.37,2.39-2.73,3.07-3.53a56.42,56.42,0,0,1,4.33-5c1-.8,1.82-2.62,1.59-3S80,65.59,81.3,65.24s2.28-3.87,2.51-4.9a4.21,4.21,0,0,0-1.37-3.07c-.57-.23,1.71-.34,2.51.11S88,56.7,89,57.16l4.21,2.51L93,62.17l-.57,4.33c-3.64,1.48-4.67,4.1-3.42,4S96.1,73,97.7,74.13s2.16-1.71,2.62-2.62a7.63,7.63,0,0,0,0-4.21c-.46-.57,1.82-.34,2.51.23s1.37-.57,1.82-.91.68-2.62,1-3.07-1-.91-1.14-1.59-2.62-1.71-3.42-2.16a2,2,0,0,1-.57-2.51c.34-.34-.23-2.62-.68-3.3s-3.07-1.37-4-1.37-1.82-2-2.39-2.39a16.63,16.63,0,0,0-4.9-.46c-.8.23-2.39-2.51-3.87-1.59s-3-.91-3.64-1.37-4.1,3.3-4,5.81,1.25,5,1.82,5.12-.11,2.39-.68,3.07-2-.68-1.48-1.25-1.48-3.3-2.16-4.33-2.28-1.48-3.42-1.94l-2,2.28a5.81,5.81,0,0,1,.23,3.07c-.46,1.59-1.82,1.82-1.82,1.14A1.94,1.94,0,0,0,66,59.21,157.48,157.48,0,0,0,30.4,142a7.51,7.51,0,0,1,1.82,2.62c.46,1.37,2.85,2.28,3.3,2.62s.57-2.62.23-3.42.57-1.14.57-.68,2.28,3.07,3,4.1,1.48,6.95,2.28,8.2,7.63,4,9.91,4.44a12.53,12.53,0,0,1,5.47,3.64c.46.68,3.42,1,4,1.37a31.61,31.61,0,0,1,2.73,2.73,4,4,0,0,1,1.14,1.94c0,.34,3.87,1.82,4.9,2.85a2.39,2.39,0,0,0,2.85.34c.23-.46,1,2,1.48,3s.46,3,.11,3.3-.8,4.21-1.48,5-2,6.49-1.71,7.63a8.43,8.43,0,0,0,3,3.76.91.91,0,0,1-.11,1.59c-.57,0-.34,5.58,1.14,6.38S77.66,205.19,77.43,205.53Z"/><path class="cls-3" d="M96,109.09"/><path class="cls-2" d="M85.17,42.25c1.82-.34,5-.91,5.24-1.37a4.78,4.78,0,0,0-.11-2.16h.91c.68,0,1.94-3.87,2.62-4.78s5-2.28,6-2.85,3.3-2.73,4.1-3.07,2.16-2.28,1.94-2.62,3-2.28,4.1-2.73,1.82-1.82,1.37-1.94-6.83,3.42-12.87,6.83a178.21,178.21,0,0,0-19.59,15.6Z"/><path class="cls-2" d="M199.84,239.47c1.94-1.14,5.47-6.26,6.6-7.29s1.94-4.9,2.16-5.69a6.49,6.49,0,0,1,2.51-2.39c.57-.23,2.62-8.65,4.44-10.59s3.87-10.82,3.64-14.12,1.14-9.34,1.59-10.82a16.63,16.63,0,0,1,3.3-4.67,95.55,95.55,0,0,0,6.38-9.22c1.37-2.28,2.73-7.29,2.39-8.54s-3.3-2-3.87-1.37-3.42,1-4.33,1-3-4.9-4.21-5.81-2.39-6.6-3.19-7.63a52.8,52.8,0,0,0-3.42-4.33c-.68-.57-.8-3.53-.91-4.33s1.25.46,1.48,1.71,3.53,5.92,4.55,7.52,3.76,6.72,4.44,8.31,6.72.8,8.77-.11,4.44-2.51,4.55-3.07,3.19-1.94,4.1-2.62,1.59-4.33,2.16-4.9-.46-4.1-1.14-5.12-3.76-1.82-4.44-1.48-1.94-2.28-2.51-3.3-2.85-2.28-3.07-3a2.5,2.5,0,0,1,1-2c.34-.23,4.78,2.85,6,4.44a25.06,25.06,0,0,1,3,4.9c.23.57,3.76.68,4.55.11a1.25,1.25,0,0,1,1.77.1,1.24,1.24,0,0,1,.17.24h1l3.87-.57a7.52,7.52,0,0,1,2.28,4.1,4.44,4.44,0,0,0,1.82,2.16c.68.11,1.25,2.62,1.48,3.3a55,55,0,0,1,2.85,5.92,33.15,33.15,0,0,0,2.73,5.47,12.53,12.53,0,0,1,.8,3.87,2.62,2.62,0,0,0,2.28,1.82c.8-.11,2.62-5.58,3.07-7.63s1.82-3.76,2.16-3.76.68-1.14.68-1.59,2.16-.34,2.39-.91.8-4.21,1.59-4.78a34.27,34.27,0,0,1,4.55-2.73c.91-.34,3.53,1.82,4.1,2.85a8.54,8.54,0,0,1,.8,4c-.23.34,1.25,2.62,2.62,2.62s1.71,1.71,1.82,2.28,1.82,2.39,2.16,3.19a7.52,7.52,0,0,1,0,3.53,18.1,18.1,0,0,0,.11,4.21c.23.8,4.33,5,5.92,6.26s2.28-2.62,1.48-3.76-3.53-4-4.1-4.78-.68-4.21-.46-5.12,2.39.46,3.19,1.14a6.6,6.6,0,0,1,2,2.62c0,.46,5.58-2.62,5.81-5.92s2-7.17,2.16-8.08a2.39,2.39,0,0,0-1-2.16c-.46-.11.8-2.51,2.39-2.51s5.24-4.1,6.15-5.81a13.21,13.21,0,0,1,2.85-3.19,24.38,24.38,0,0,0,1.59-5.69c.23-1.59-.91-4.1-1-5a13.54,13.54,0,0,0-1.82-3.3,7,7,0,0,1-.46-3.3c.11-.34,1.59-.8,1.71-1.25s1.71-2,1.59-2.85.91,1,1.71,1.59,1.48,4.67,2.39,5,4.55-4.21,4.1-7.29,1-6.95,1.94-7.29,2.39-2.73,3.53-4.44a158.51,158.51,0,0,0-39.06-61.49h-.57l-1.37-.23C292,45.43,290.71,43,291,42.47a1.48,1.48,0,0,0,0-1c-1.25-1.14-2.51-2.28-3.87-3.3h-2.85a12.52,12.52,0,0,1-4.78-1.48c-.46-.46-2.28.46-2.39,1.48s-3.19,1.37-3.42,2.16a1.82,1.82,0,0,1-2.16.46c-.23-.46-3.19,1-4.55,1.14a20.73,20.73,0,0,0-4.67,1.59A7.06,7.06,0,0,0,260,45.89a7.4,7.4,0,0,1-2.62,1.82c-.57.23-.46,2.85.23,3.3s-1.37-.34-2.39-.8-1.94,1.14-2.28,1.71-1.14-.34-1.14-1.14-2.39-1.37-2.62-.8-1.94-.23-2.62-.57-3.64,2.73-4.78,3.87-6.38,1.94-7.29,1.59-1.94,2.28-1.14,2.51h-3.19a27.79,27.79,0,0,0-7.52,2.85,1.25,1.25,0,0,1-2-.8c0-.68-1.82-1.25-2.28-1.37s-1.59,3.53-2.51,4.21-2-2.85-4.33-3.53-5.69-2.73-6.72-3-3-2.28-3.53-3-3.42-1-4.33-1-3.87,1.71-4.67,2.28-1.94.46-2.39.8-3.76,3.42-5,4.44-3.53,5.35-4.21,6.49a2.73,2.73,0,0,1-2.16,1.25,2.16,2.16,0,0,0-.8,1.59c0,.46-3.76,2.39-4.21,4.1s.46,5.69.46,7.06S175.24,84,176.27,84s.57,2.39.23,3.07.68,1.37.57,1.94-2.62,1.37-3.42,1.59a5.69,5.69,0,0,0-2.28,2.85c-.11.57-2.62,1-3.53,1.82a10.37,10.37,0,0,1,.68-1.82,3.07,3.07,0,0,0-.57-2.85c-.34-.34-.57-4.9-1.25-5.92a25.52,25.52,0,0,0-2.62-3c-.34-.34.23-1.48.57-2s-2.16-.8-2.73-.46-1,4.9-1.25,6.15a3.87,3.87,0,0,0,1.59,3.19c.46.11.23,2.28-.57,2.39s-1.59,3.3-1.14,4.1-.57,2.16-1,2.51,3.19.11,4.9.11a4.44,4.44,0,0,1,2.85.8c-.11.11-3.19.57-3.76,1.25s-2.62,2-3,2.62.68,1.71,1.48,1.71,1.82,3,2.51,3.53a2.51,2.51,0,0,1,.11,2.62c-.23.46-4.44-.23-5.92.11s-3.53,3.64-3.64,4.9a32.34,32.34,0,0,0,.46,5.81c.11,1,3.42,1.59,4.1,2s3.76,0,4.44.34,2.73-3.19,3.19-4.78,3.76-4.55,4.44-5.69,4.21-.91,5.12-1.48.46,2.73.8,4.55,3.87,1.59,3.3-.11.34-2.39.46-1.82,3.42,1.94,4.1,2.85.46,3-.23,3-.8,2.16,0,2.51,1.82-2.51,2.62-3,1.48-2.16,1.14-2.28.68-1.71,1.14-1.14a20.31,20.31,0,0,0-3.19-4.78c-1.48-1.48-.34-.8,2.16,1.37l1.82,2.51c.34.46.8,1.82,1.14,2.28l.46.68a18.46,18.46,0,0,1,.68,4,2.62,2.62,0,0,0,2.28,1.82,1.48,1.48,0,0,1,1.37.46c-.11.11.57,1.71,1.37,1.71s1.25-2.16.34-2.16-.68-3.19-.8-4.67.57-2.51.91-2.51,0,2.85,0,3.53a11.05,11.05,0,0,0,.8,2.85l.91.68,1.94,1.48c2.85-.8,6.72-.11,6.49.46s2,.68,2.16-.23.23.11.23.68-1.82,3.19-2.16,4.33-6.95.34-9.79.11-7.06.68-7.29,1.59-4.67-1.94-6.72-2.73-3.64-3.87-4-4.33.34-1.37.11-2-4.78-.68-6.15-.23-8.31,1.25-9.91,1.94-4.1,0-4.9-.11-2.62,2.16-3.53,2.51-2,3.64-2.62,7.17L153,136.76l-.8,1.59c-2.28,1.71-4.78,7.52-5.58,8.77s-1.37,9.56-1.37,12.41,2.39,8.77,3.19,10.48,4.9,5.24,6.38,6.15,6,1,7.52,1a4.44,4.44,0,0,0,3.76-3.19l2.16.23h1c0,1.25,3.3,2.16,4.1,2.62a6.26,6.26,0,0,0,3.53-.11c.57-.11,1.37,5.58.91,7.29s1.14,7.52,1.59,9.34,2.51,6.6,2.62,8.31-1.14,7.52-1.37,9.56,2.51,7.63,3.19,9.56a35.3,35.3,0,0,1,1.25,7.06c0,.91,3,6.83,3.64,9.22S197.79,240.6,199.84,239.47Z"/><path class="cls-2" d="M330.33,167.5c.11.46,2-1,3.19-1.25s1.82-3.19.91-3.42-1.94-2.62-2.62-2.85-1.82,1-1.82,1.94-2,1.25-2.51,2-.34,1.25,0,1.25A10.44,10.44,0,0,1,330.33,167.5Z"/><path class="cls-2" d="M328.06,184.24c.57-.23,0-3.19-1.25-3.42s-4.44,4-3.87,6.38,1.25,2.28,1.59,1.71,2.28.34,2.85.46.57-.34,0-1.25S327.49,184.47,328.06,184.24Z"/><path class="cls-2" d="M321.57,181.28c.11-1,.34-4.44.46-5.12s-1.82-2.62-2.85-3-4.1,6.49-6.38,7.74-3.07,5.47-2.51,6.38,5.35,1.48,6.15,2.16,1.71-.11,2.28-.23.34-.46.11-.57,1.59-2,1.94-3.3A31.42,31.42,0,0,0,321.57,181.28Z"/><path class="cls-2" d="M308.58,192.78c-1.71-.68-3.87.34-4,1s6.83,1.82,9.22,2.39,3.76.8,3.3.46Z"/><path class="cls-2" d="M323,146.66c.57-.8-.8-4.44-1.48-3.64s-.11,3,0,3.76S322.48,147.46,323,146.66Z"/><path class="cls-2" d="M327.14,154.63c.46-.91-.46-1.94-2-2.28s-1.25,4.21-.57,4.78S326.8,155.54,327.14,154.63Z"/><path class="cls-2" d="M335.23,183.1c1.82,1.25,5.92.68,6-1.71C339.44,180.14,335.12,180.37,335.23,183.1Z"/><path class="cls-2" d="M334.2,126.62a2.62,2.62,0,0,0-.91,2.39H333c-.57,0-.68,2.39,0,2.85s2.16-1.82,3-2.39a3.87,3.87,0,0,1,2.62-.68,7.63,7.63,0,0,0,3.07-.91,2.73,2.73,0,0,0,.91-1c-.34-1.71-.8-3.42-1.14-5.24l-2,1.48Z"/><path class="cls-3" d="M292.3,175.36"/><path class="cls-2" d="M303.69,185.95a21,21,0,0,0-4.78-5.58l-.68-1.25-.8-1.37c-.68-1.48-3-2.62-3.19-3.07s-.91,1.25-1.71.8l2.39,1.71c2,1.48,6.15,11.84,7.17,12.53S304.37,187.43,303.69,185.95Z"/><path class="cls-2" d="M271,169.21c-.57,1.14,3,3.64,3.3,3.07a7.52,7.52,0,0,0-1-4C272.6,167.61,271.69,168.07,271,169.21Z"/><path class="cls-2" d="M223.18,224.32c.11,1.25,2.62,2.16,3.3,1.94s2.73-3.87,3-4.9a32,32,0,0,0,.57-3.87,5,5,0,0,1,.57-1.94,7.63,7.63,0,0,0,1-2.73c.23-1.37-1.48-7.86-1.48-9s-1.25.57-1.59,1.71-3.53,3.53-4.33,4.44-1.48,4.21-1.14,4.78a7.29,7.29,0,0,1-.57,3.42C222,218.86,223,223.18,223.18,224.32Z"/><path class="cls-2" d="M106.47,269.41h2.16C108.86,267,106.35,267.36,106.47,269.41Z"/><path class="cls-2" d="M164.54,24.14a7.29,7.29,0,0,1-3.64-.8A8.77,8.77,0,0,0,156,23c-1,.46-.34-2.51,1-2.73s.23-2.28-1.25-2.28-5.24-.57-6-.34a14.7,14.7,0,0,1-3.19-.68c-.57-.11-5.12,1.37-7.17,1.25a48.4,48.4,0,0,0-8.43.46c-1.14.23-1.94,2.51-1.71,3.3s-5,.8-6.6.8S112.27,24.6,110,25.85s-4,4.44-3.3,4.44-1.25,1.82-2.51,2.28-4.1.57-4.78,1.25.68,1.14.91,1.59,1-.34,1.82.11,3.3.57,4,.91-2.16.8-3.42.91-1,2.62,0,3.07,3.87.68,4.1.23,3.3.46,4.67.68,2.39,3.53,2.85,4.33.46,3.3.46,4.1,2.39,2,2.85,1.59.34,1.14-.68,1-.34,2.73.91,3.19.34,2.16-.34,2.73-.34,2.16-1,2.85,2.62,6.38,2.51,9.34,1.82,5.35,2.51,5.35,3.07.57,3.42,1.25,1.48-.46,1.94-.91A29.24,29.24,0,0,0,129,73c.8-1.25,2.39-7.17,2.62-7.86s3-.23,3.64-.57a28.91,28.91,0,0,0,3-2.16c.46-.46,4.44-2,5.58-2.85s2.85-4.1,3.76-4.9-.46-.46-1.48-1.14a1.14,1.14,0,0,1-.23-1.82c.23-.34,3.53.46,4.55.91s3.19-1,2.39-1.59-.34-.57,0-.34.8-1.94.46-2.39,3.19-3.07,2.62-5.58.91-5.12,1.94-5.12.68-2.85-.57-3.07,0-.46.46-.91a7.17,7.17,0,0,0,.68-3.42c-.23-.46,1.82-1,2.16-1.59a9.68,9.68,0,0,1,3.53-1.82C164.77,26.42,165.34,24.14,164.54,24.14Z"/><path class="cls-2" d="M185,26.42c-1.14-.34-3.42.91-3.07,1.59s-1.82-.91-3.3-.11-1.94,3.42-1.25,3.76,1.14,2.39,1.14,2.85,2.85.11,3.64-.46.57,2-.11,2.85.23,2.16,1,2.28,1.82,1.94,2.73,1.94,2.28-3.19,2.51-4.33,3.07-.23,4.33.11,1.71-4.33.34-5.12-3.07-.34-3.64-.91a4.33,4.33,0,0,0-2.16-1.14C186.74,29.61,186.18,26.76,185,26.42Z"/><path class="cls-2" d="M196.08,28.69a7.86,7.86,0,0,0,5.24-2c.57-.46-6.15-1.82-8.77-1.94s-4.55.23-4.55.8S193.92,28.35,196.08,28.69Z"/><path class="cls-2" d="M155.32,89.16c-.57-.23-.91,1.94-.8,2.73s2.16.8,3.07.57a1.82,1.82,0,0,0,1.48-1.59c0-.68-1.25-4-1.71-4S155.89,89.39,155.32,89.16Z"/><path class="cls-2" d="M161.92,63.31c-.46-.8-3.87-.68-4.78-.68a12.07,12.07,0,0,1-4-1.48c-.57-.57-.8,2.16-1.59,2.51s.46.8.68.57,0,1.37-.46,1.94,2.28.91,2.62,1.82a2.28,2.28,0,0,0,2.39,1.25c1-.11,3.07-1.25,3.87-1.37S162.38,64.22,161.92,63.31Z"/><path class="cls-2" d="M235.59,43.27c1.14-1.14,6.15-2.85,6.72-4.1a1.59,1.59,0,0,0-.59-2.18l-.21-.1a1.71,1.71,0,0,0-1.25.8c-.11.23-5.81,1.48-7.52,2.39a18.91,18.91,0,0,0-4.44,2.85c-.68.68-1.94,6.38-2.28,6.95s1.82,2.85,2.85,3.53a5.24,5.24,0,0,0,2.85.23c.46-.11-.46-4-1-5.35S234.46,44.52,235.59,43.27Z"/><path class="cls-2" d="M229.56,28.58c1.82,1.82,2.85-.8,4.9-.57C234.46,24.14,229.33,25.62,229.56,28.58Z"/><path class="cls-2" d="M265.88,29.38c0,.68,5.12,1.25,6.72.91s-.34-2.62-2.51-2.51S265.88,28.69,265.88,29.38Z"/><path class="cls-2" d="M76.41,68.09c-.57.46,0,3.07.91,3.07s2.73-3.87,4-3.07,2.16,1,1.94.68-3.87-1.94-4.33-2.28S77,67.64,76.41,68.09Z"/><path class="cls-2" d="M89.73,155.09c0,.46,2.28.34,2.62-.34s.11-1.25-.46-1.25A3.64,3.64,0,0,0,89.73,155.09Z"/><path class="cls-2" d="M79.59,151.33c1-.23.57,1.48.8,2.16s2.85,1.14,3.42,1.59,1.82-.8,2.85-.68-.34-3.64-2-3.53-3.07-1.59-3.53-1.82a18.9,18.9,0,0,1-3-1.82c-.57-.46-5-.8-6.49-.8a4.67,4.67,0,0,0-3.42,2c-.23.46,2.39.91,3.07.46s4.21.46,5,1.25A4.21,4.21,0,0,0,79.59,151.33Z"/><path class="cls-2" d="M74.81,155.09c0,.46,2.28.11,2.85.11s.57-.46,0-.8S74.81,154.63,74.81,155.09Z"/><path class="cls-2" d="M76.41,143.25c-.57-.23-1,.68-1,1.14a.8.8,0,0,0,.68.8C76.52,145.18,77.09,143.47,76.41,143.25Z"/><path class="cls-2" d="M81.3,143.59a1.94,1.94,0,0,0-1.48-.8c-.34,0-.46.68-.46,1.71S81.42,144,81.3,143.59Z"/><path class="cls-2" d="M84.72,148.94c.91-.46,1-1.48.46-1.48s-1.59-1.59-2.16-1.82-1,1-1,1.48a.68.68,0,0,0,.56.79h.12C83.12,147.8,83.81,149.4,84.72,148.94Z"/><path class="cls-2" d="M342.18,185.15c-.46.23-2.73.46-3.07.11s-.68.91-1.25,1.14-.23,1.37.57,1,2.73.91,4.44,2c.34-1.71.68-3.53.91-5.35Z"/><path class="cls-2" d="M77.43,205.53c-.23.46,2.62,3.3,3.64,4.33a29.62,29.62,0,0,1,3.87,7.29,13.09,13.09,0,0,1,0,4.67,8,8,0,0,0,.57,2.39c.11.57-.91,5.12-.57,7.06s-2.16,7.63-2,10.59,1.37,6.6,1.82,6.38.68,2.62-.11,3-1.94,2.62-1.37,2.73,0,2.39.11,3.3.91,6.95,1,8.43,2.28,5.12,2.73,6.38.91,3.53,1,3.87l.34.8a10.81,10.81,0,0,1,2.28,1c.46.34,3.87.11,5-.11s.11-1.25-.34-1.71-.91-3.19-1.48-3.42-.8-3.64-.34-4.44,2.51-1.94,2.73-2.62.23-3.53-.23-4,.11-4-.23-5.81,3.07-3.42,3.3-4.78,4-3,4.78-3.64,1.59-4.78,1.14-5.58,1.37-1.59,2.16-1.59a11.39,11.39,0,0,0,2-.57c.23,0,1.25-1.82,1.71-2.16s1.59-4.67,2.51-5.35a7.74,7.74,0,0,0,1.71-4,10.59,10.59,0,0,1,1.94-3.64c.46-.68,4-2.28,4.67-2.51s1.59-5.92,1.82-8a45.91,45.91,0,0,1,1.37-5.47c0-.68,1.14-1.25,1.37-1.48s1-2.85,1.59-3.42,2.51-3.07,2.51-3.64a18.1,18.1,0,0,1,.68-3.19v-3.53c-.57-1.71-2.51-3.87-3-3.3s-2.62-1.48-3.76-1.94a18.57,18.57,0,0,0-4.55-.68c-.68,0-3.07-1.94-4.21-2.28a38,38,0,0,1-4.33-1.14c-.46-.34-1.14-4.44-3.42-5.81s-6.15-4.55-6.6-5.69-4.67-3.53-6-4.33-3.3-.91-3.53-.57-1.94-2.28-2.73-3-3.42-1.25-3.53-.68-1.82.23-2.16-.23-1.71.23-2.39.46-2.73,3.42-3.76,4.21-2.16-.68-2.85-1a6.83,6.83,0,0,0-3.76,1c-.68.46-2.16-3.42-1.82-5.24s-1.59-5.35-3.19-5.47-1.94-3.87-1.71-5.24-2.73-2.28-3.53-2.39-2.62,1.82-3,2.85-7.29-1.25-6.49-5.47,4.1-8.54,4.9-9,5.24-.68,6.26-.11a1.82,1.82,0,0,0,2-.23,13.89,13.89,0,0,1,4.9.46c1,.46,2.62,4.67,3.76,5.12s1.48-2.73,1.71-3.53a10.24,10.24,0,0,0-.8-3.3c-.23-.57,1.82-5.69,3.53-6.49s3.53-3.76,3.3-4.21,1.37-.91,1.71-1.14,0-4.33.57-5.24a19.59,19.59,0,0,1,4.9-3.19c1-.46,1.71-3,1.37-3.53s2.62-3,4.21-3.53,2.85.91,2.51,1,2.39-1.25,3.3-1.82,0-2.62-.68-3.19-.23-2.73.57-3a2.86,2.86,0,0,0,1.25-2.51c-.23-.34,3.42.34,4.78-.68s.34,2.39-.57,3.87a1.59,1.59,0,0,0,1.37,2.51,1.48,1.48,0,0,1,1.48,1.14c.11.34,1.48-.46,2.39,0s1.48-1.25,1.48-2-2.16-2.28-2.51-3.3a52.38,52.38,0,0,1-.46-7.4c0-1-1.48-2.85-1.94-2.51s-1.37-2.85-2.16-3.53a4,4,0,0,1-.91-2.73c0-.46-2.51-3.19-3.19-4.44s-1.48-1-1.59-.46-1.82.68-2.62.57-1.37-3-1.37-4-3.3-1.25-3.87-2.16-2.73-.46-3.07-1a3.64,3.64,0,0,0-2.62-.91c-.34.23-.23,8.08-.57,10.13s-2.16,4-2.85,3.87-.23,1.48.11,1.37S80.28,90.41,80,92s-1.82,0-2-1.48-1.82-3.42-2.16-3S74.47,87,74,87.34s-3.42-1.71-4.67-2.39-1.82-4.33-2.62-4.67-.11-.8-.11-1.37,2.39-2.73,3.07-3.53a56.42,56.42,0,0,1,4.33-5c1-.8,1.82-2.62,1.59-3S80,65.59,81.3,65.24s2.28-3.87,2.51-4.9a4.21,4.21,0,0,0-1.37-3.07c-.57-.23,1.71-.34,2.51.11S88,56.7,89,57.16l4.21,2.51L93,62.17l-.57,4.33c-3.64,1.48-4.67,4.1-3.42,4S96.1,73,97.7,74.13s2.16-1.71,2.62-2.62a7.63,7.63,0,0,0,0-4.21c-.46-.57,1.82-.34,2.51.23s1.37-.57,1.82-.91.68-2.62,1-3.07-1-.91-1.14-1.59-2.62-1.71-3.42-2.16a2,2,0,0,1-.57-2.51c.34-.34-.23-2.62-.68-3.3s-3.07-1.37-4-1.37-1.82-2-2.39-2.39a16.63,16.63,0,0,0-4.9-.46c-.8.23-2.39-2.51-3.87-1.59s-3-.91-3.64-1.37-4.1,3.3-4,5.81,1.25,5,1.82,5.12-.11,2.39-.68,3.07-2-.68-1.48-1.25-1.48-3.3-2.16-4.33-2.28-1.48-3.42-1.94l-2,2.28a5.81,5.81,0,0,1,.23,3.07c-.46,1.59-1.82,1.82-1.82,1.14A1.94,1.94,0,0,0,66,59.21l-2,2.62-2,2.62-2,2.85L58.07,69.8l-2.62,3.87-2.39,3.76c-.68,1-1.25,2.16-1.94,3.3A12.75,12.75,0,0,0,49.87,83l-1.94,3.53-1,2c-1.37,2.73-2.73,5.58-4,8.54v.23l-1.71,4.33-.68,1.59-1.59,4.44-.23.68a156.65,156.65,0,0,0-4.44,15.37c-.11.34-.11.68-.23,1a157,157,0,0,0-2.85,16.74h0A7.51,7.51,0,0,1,33,144.16c.46,1.37,2.85,2.28,3.3,2.62s.57-2.62.23-3.42.57-1.14.57-.68,2.28,3.07,3,4.1,1.48,6.95,2.28,8.2,7.63,4,9.91,4.44a12.53,12.53,0,0,1,5.47,3.64c.46.68,3.42,1,4,1.37a31.61,31.61,0,0,1,2.73,2.73,4,4,0,0,1,1.14,1.94c0,.34,3.87,1.82,4.9,2.85a2.39,2.39,0,0,0,2.85.34c.23-.46,1,2,1.48,3s.46,3,.11,3.3-.8,4.21-1.48,5-2,6.49-1.71,7.63a8.43,8.43,0,0,0,3,3.76.91.91,0,0,1-.11,1.59c-.57,0-.34,5.58,1.14,6.38S77.66,205.19,77.43,205.53Z"/><line class="cls-4" x1="95.99" y1="109.09" x2="95.99" y2="109.09"/><path class="cls-2" d="M85.17,42.25c1.82-.34,5-.91,5.24-1.37a4.78,4.78,0,0,0-.11-2.16h.91c.68,0,1.94-3.87,2.62-4.78s5-2.28,6-2.85,3.3-2.73,4.1-3.07,2.16-2.28,1.94-2.62,3-2.28,4.1-2.73,1.82-1.82,1.37-1.94-6.83,3.42-12.87,6.83h-.11L93.26,31.2,90,33.82l-1.71,1.37-3.87,3.3-.8.68-4.21,3.76Z"/><path class="cls-2" d="M185.49,119.56c-.68,0-.8,2.16,0,2.51s1.25-1.25,1.94-2.16v-8.77h-.11c-.91-.91-.8-.91.11-.23V56.59l-2,1.82c-1.25,1-3.53,5.35-4.21,6.49A2.73,2.73,0,0,1,179,66.16a2.16,2.16,0,0,0-.8,1.59c0,.46-3.76,2.39-4.21,4.1s.46,5.69.46,7.06,1.37,4.21,2.39,4.21.57,2.39.23,3.07.68,1.37.57,1.94-2.62,1.37-3.42,1.59a5.69,5.69,0,0,0-2.28,2.85c-.11.57-2.62,1-3.53,1.82s.57-1.37.68-1.82a3.07,3.07,0,0,0-.57-2.85c-.34-.34-.57-4.9-1.25-5.92a25.52,25.52,0,0,0-2.62-3c-.46-.34.23-1.48.57-2s-2.16-.8-2.73-.46-1,4.9-1.25,6.15a3.87,3.87,0,0,0,1.59,3.19c.46.11.23,2.28-.57,2.39s-1.59,3.3-1.14,4.1-.57,2.16-1,2.51,3.19.11,4.9.11a4.44,4.44,0,0,1,2.85.8c-.11.11-3.19.57-3.76,1.25s-2.62,2-3,2.62.68,1.71,1.48,1.71,1.82,3,2.51,3.53a2.51,2.51,0,0,1,.11,2.62c-.23.46-4.44-.23-5.92.11s-3.53,3.64-3.64,4.9a31.88,31.88,0,0,0,.46,5.81c.11.91,3.42,1.59,4.1,2s3.76,0,4.44.34,2.73-3.19,3.19-4.78,3.76-4.55,4.44-5.69,4.21-.91,5.12-1.48.46,2.73.8,4.55,3.87,1.59,3.3-.11.34-2.39.46-1.82,3.42,1.94,4.1,2.85S186.18,119.56,185.49,119.56Z"/><path class="cls-2" d="M187.43,130.38a8.88,8.88,0,0,0-1.71-.8c-2-.8-3.64-3.87-4-4.33s.34-1.37.11-2-4.78-.68-6.15-.23-8.31,1.25-9.91,1.94-4.1,0-4.9-.11-2.62,2.16-3.53,2.51-2,3.64-2.62,7.17l-1.25,2.39-.8,1.59c-2.28,1.71-4.78,7.52-5.58,8.77s-1.37,9.56-1.37,12.41,2.39,8.77,3.19,10.48,4.9,5.24,6.38,6.15,6,1,7.52,1a4.44,4.44,0,0,0,3.76-3.19l2.16.23h1c0,1.25,3.3,2.16,4.1,2.62a6.26,6.26,0,0,0,3.53-.11c.57-.11,1.37,5.58.91,7.29s1.14,7.52,1.59,9.34,2.51,6.6,2.62,8.31-1.14,7.52-1.37,9.56,2.51,7.63,3.19,9.56a35.3,35.3,0,0,1,1.25,7.06,21.17,21.17,0,0,0,1.59,4.1V130.15h0Z"/><path class="cls-2" d="M106.47,269.41h2.16C108.86,267,106.35,267.36,106.47,269.41Z"/><path class="cls-2" d="M150.19,52.72c1.14.46,3.19-1,2.39-1.59s-.34-.57,0-.34.8-1.94.46-2.39,3.19-3.07,2.62-5.58,1-5.12,1.94-5.12.68-2.85-.57-3.07,0-.46.46-.91a7.17,7.17,0,0,0,.68-3.42c-.23-.46,1.82-1,2.16-1.59a8.88,8.88,0,0,1,3.53-1.82c.91-.11,1.25-2.39.46-2.28a7.29,7.29,0,0,1-3.64-.8c-.46-.46-3.87-.8-4.9-.46s-.34-2.51,1-2.73.23-2.28-1.25-2.28-5.24-.57-6-.34a14.7,14.7,0,0,1-3.19-.68c-.57-.11-5.12,1.37-7.17,1.25a48,48,0,0,0-8.43.46c-1.14.23-1.94,2.51-1.71,3.3s-5,.8-6.6.8S112,24.94,109.77,26.19s-4,4.44-3.3,4.44-1.25,1.82-2.51,2.28-4.1.57-4.78,1.25.68,1.14.91,1.59,1-.46,1.82,0,3.3.57,4,.91-2.16.8-3.42.91-1,2.62,0,3.07,3.87.68,4.1.23,3.3.46,4.67.68,2.39,3.53,2.85,4.33.46,3.3.46,4.1,2.39,2,2.85,1.59.34,1.14-.68,1-.34,2.73.91,3.19.34,2.16-.34,2.73-.34,2.16-1,2.85,2.62,6.38,2.51,9.34,1.82,5.35,2.51,5.35,3.07.57,3.42,1.25,1.48-.46,1.94-.91a29.24,29.24,0,0,0,2.16-3.19c.8-1.25,2.39-7.17,2.62-7.86s3-.23,3.64-.57a28.91,28.91,0,0,0,3-2.16c.46-.46,4.44-2,5.58-2.85s2.85-4.1,3.76-4.9-.46-.46-1.48-1.14a1.14,1.14,0,0,1-.23-1.82C145.87,51.47,149.17,52.27,150.19,52.72Z"/><path class="cls-2" d="M185,26.42c-1.14-.34-3.42.91-3.07,1.59s-1.82-.91-3.3-.11-1.94,3.42-1.25,3.76,1.14,2.39,1.14,2.85,2.85.11,3.64-.46.57,2-.11,2.85.23,2.16,1,2.28,1.82,1.94,2.73,1.94a2.73,2.73,0,0,0,1.48-1.71V29.61h0C186.74,29.61,186.18,26.76,185,26.42Z"/><path class="cls-2" d="M157.71,92.46a1.82,1.82,0,0,0,1.48-1.59c0-.68-1.25-4-1.71-4s-1.37,2.39-2,2.16-.91,1.94-.8,2.73S156.68,92.69,157.71,92.46Z"/><path class="cls-2" d="M154.52,68a2.28,2.28,0,0,0,2.39,1.25c1-.11,3.07-1.25,3.87-1.37s1.48-3.76,1-4.55-3.87-.68-4.78-.68a12.07,12.07,0,0,1-4-1.48c-.57-.57-.8,2.16-1.59,2.51s.34.8.68.57,0,1.37-.46,1.94S154.29,67.3,154.52,68Z"/><path class="cls-2" d="M76.41,68.09c-.57.46,0,3.07.91,3.07s2.73-3.87,4-3.07,2.16,1,1.94.68-3.87-1.94-4.33-2.28S77,67.64,76.41,68.09Z"/><path class="cls-2" d="M89.73,155.09c0,.46,2.28.34,2.62-.34s.11-1.25-.46-1.25A3.64,3.64,0,0,0,89.73,155.09Z"/><path class="cls-2" d="M79.59,151.33c1-.23.57,1.48.8,2.16s2.85,1.14,3.42,1.59,1.82-.8,2.85-.68-.34-3.64-2-3.53-3.07-1.59-3.53-1.82a18.9,18.9,0,0,1-3-1.82c-.57-.46-5-.8-6.49-.8a4.67,4.67,0,0,0-3.42,2c-.23.46,2.39.91,3.07.46s4.21.46,5,1.25A4.21,4.21,0,0,0,79.59,151.33Z"/><path class="cls-2" d="M74.81,155.09c0,.46,2.28.11,2.85.11s.57-.46,0-.8S74.81,154.63,74.81,155.09Z"/><path class="cls-2" d="M76.41,143.25c-.57-.23-1,.68-1,1.14a.8.8,0,0,0,.68.8C76.52,145.18,77.09,143.47,76.41,143.25Z"/><path class="cls-2" d="M81.3,143.59a1.94,1.94,0,0,0-1.48-.8c-.34,0-.46.68-.46,1.71S81.42,144,81.3,143.59Z"/><path class="cls-2" d="M84.72,148.94c.91-.46,1-1.48.46-1.48s-1.59-1.59-2.16-1.82-1,1-1,1.48a.68.68,0,0,0,.56.79h.12C83.12,147.8,83.81,149.4,84.72,148.94Z"/><path class="cls-5" d="M90.41,39.06c-.11-.11-.8.34-.46.57A.37.37,0,0,0,90.41,39.06Z"/><path class="cls-5" d="M107.95,91.32c-.11-.11-.8.34-.57.57S108.29,91.66,107.95,91.32Z"/><path class="cls-6" d="M107.26,46h-88A19.24,19.24,0,0,0,0,65.25v211a19.24,19.24,0,0,0,19.24,19.24h88a19.24,19.24,0,0,0,19.24-19.24V65.36A19.13,19.13,0,0,0,107.61,46Z"/><path class="cls-7" d="M46.57,61H79.82a1.71,1.71,0,0,1,1.71,1.71,1.59,1.59,0,0,1-1.47,1.71H46.57a1.71,1.71,0,1,1,0-3.42Z"/><path class="cls-7" d="M63.2,281.37a11.16,11.16,0,1,1,11.16-11.16A11.27,11.27,0,0,1,63.2,281.37Z"/><rect class="cls-7" x="8.2" y="84.04" width="109.88" height="162.71"/><path class="cls-3" d="M63.2,262.47a7.86,7.86,0,0,0-7.74,7.74,7.74,7.74,0,1,0,7.74-7.74Z"/><rect class="cls-8" x="14.58" y="121.61" width="97.24" height="50"/><rect class="cls-9" x="41.22" y="100.09" width="70.26" height="6.95"/><path class="cls-9" d="M32.79,103.62a9.11,9.11,0,1,1-9.11-9.11A9.11,9.11,0,0,1,32.79,103.62Z"/><rect class="cls-9" x="14.58" y="203.71" width="97.24" height="2.86"/><rect class="cls-9" x="14.58" y="213.62" width="97.24" height="2.86"/><rect class="cls-9" x="14.58" y="223.41" width="97.24" height="2.86"/><rect class="cls-9" x="14.58" y="233.2" width="70.6" height="2.86"/><rect class="cls-9" x="14.58" y="184.7" width="64.68" height="6.95"/><path class="cls-7" d="M41.56,150.76V138.12h2.28l1.94,5,1.37,3.64h0c-.11-1.37-.23-3.53-.23-5.81v-2.85h2.16v12.64H46.8L44.86,146a36.46,36.46,0,0,1-1.25-3.76h0c0,1.25.11,3.19.11,5.81v2.85H41.56Z"/><path class="cls-7" d="M56.59,145.18H53.75v3.42H57v2.16H51.35V138.12h5.47v2.16H53.75v3h2.85v1.94Z"/><path class="cls-7" d="M60,140.4H57.73v-2.28h6.95v2.28H62.4v10.36H59.9V140.4Z"/><path class="cls-7" d="M67.75,150.76l-2.16-12.64h2.51l.57,5c.11,1.48.23,2.85.46,4.44h0c.11-1.59.46-3,.68-4.44l.91-5h1.94l.8,5c.23,1.48.46,2.85.57,4.44h0l.46-4.44.57-5h2.39l-2.28,12.64H73l-.8-4.1c-.23-1.14-.34-2.62-.57-4.1h0c-.23,1.48-.46,3-.68,4.21l-.8,4.1H67.75Z"/><path class="cls-7" d="M86.65,144.27c0,4.78-1.71,6.72-4.1,6.72s-4-3.07-4-6.49S79.94,138,82.78,138,86.65,141.31,86.65,144.27Zm-5.58.23c0,2.85.57,4.33,1.59,4.33s1.48-1.82,1.48-4.44-.34-4.21-1.48-4.21S81.07,141.77,81.07,144.5Z"/><path class="cls-7" d="M88.13,138.35l2.73-.23a4.9,4.9,0,0,1,3.42.91,3.19,3.19,0,0,1,1,2.62,3.42,3.42,0,0,1-1.94,3.19h0c.91.34,1.25,1.14,1.59,2.51a20.39,20.39,0,0,0,.8,3.42H93.14a17.42,17.42,0,0,1-.57-3.07c-.23-1.59-.57-2-1.48-2h-.34v5H88.25V138.24Zm2.51,5.47h.46a1.71,1.71,0,0,0,1.72-1.69,1.73,1.73,0,0,0,0-.24,1.59,1.59,0,0,0-1.35-1.81l-.24,0h-.57Z"/><path class="cls-7" d="M97,138.12h2.51v5.69h0l.57-1.59,1.71-4.1h2.73l-2.85,5.47,2.85,7.17H101.8L100,145.52l-.57,1v4.21H96.9V138.12Z"/><g id="Page-1"><g id="xamagon"><path id="Logo" class="cls-7" d="M24.6,136.3a1.48,1.48,0,0,0-1.48.57l-4.55,7.74a1.59,1.59,0,0,0,0,1.59L23.12,154a1.59,1.59,0,0,0,1.48.68h9.11a1.59,1.59,0,0,0,1.48-.68l4.55-7.74a1.59,1.59,0,0,0,0-1.59l-4.55-7.52a1.48,1.48,0,0,0-1.48-.57H24.6Zm.11,3.76v-.34H26.3a1.25,1.25,0,0,1,.23.46l2.62,4.9h0l2.62-5a1,1,0,0,1,.23-.34h1.59a.57.57,0,0,1,.23.57l-2.62,4.78,2.62,4c.11.11,0-.34-.23-.34H32c-.11,0-.11.68-.23.57L29.15,145h0l-2.62,4.1c0,.11-.11-.57-.23-.57H24.71c-.11,0-.23.46-.23.34l2.62-4.33-2.62-4.55a.23.23,0,0,1,.06-.32l.05,0h0Z"/></g></g></g></g></g></svg>